<svg width="74" height="22" viewBox="0 0 74 22" fill="none" xmlns="http://www.w3.org/2000/svg">
<path d="M12.584 21.13L11.31 16.06H5.096L3.718 21L0.39 20.74L2.678 14.422L6.162 3.242L10.816 2.904L14.17 14.032L16.328 20.558L12.584 21.13ZM8.476 6.284H8.138L5.902 13.304H10.53L8.476 6.284ZM22.141 18.582C23.0424 18.582 23.493 18.1833 23.493 17.386C23.493 17.1087 23.2937 16.8487 22.895 16.606C22.5137 16.3633 22.037 16.1207 21.465 15.878C20.9104 15.6353 20.347 15.3667 19.775 15.072C19.2204 14.76 18.7437 14.3353 18.345 13.798C17.9637 13.2607 17.773 12.6453 17.773 11.952C17.773 10.7907 18.2844 9.77667 19.307 8.91C20.3297 8.04333 21.5084 7.61 22.843 7.61C23.467 7.61 24.0737 7.688 24.663 7.844C25.2697 7.98267 25.8504 8.208 26.405 8.52L24.663 11.692C24.5417 11.588 24.3857 11.458 24.195 11.302C24.0044 11.146 23.6404 10.9467 23.103 10.704C22.583 10.444 22.115 10.314 21.699 10.314C21.3004 10.314 20.9884 10.4093 20.763 10.6C20.555 10.7733 20.451 11.0247 20.451 11.354C20.451 11.666 20.7457 11.9867 21.335 12.316C21.9417 12.628 22.6004 12.9227 23.311 13.2C24.0217 13.46 24.6717 13.902 25.261 14.526C25.8677 15.1327 26.171 15.8607 26.171 16.71C26.171 17.9233 25.6684 18.9893 24.663 19.908C23.675 20.8267 22.531 21.286 21.231 21.286C20.399 21.286 19.619 21.104 18.891 20.74C18.1804 20.376 17.669 20.012 17.357 19.648L16.889 19.102L18.943 16.71C19.047 16.8487 19.1944 17.022 19.385 17.23C19.5757 17.438 19.9484 17.7153 20.503 18.062C21.075 18.4087 21.621 18.582 22.141 18.582ZM36.5595 21.26L31.6715 14.058V14.24L31.9575 20.35L28.4475 21L28.7595 14.682L28.4475 1.526L32.0095 0.875999L31.6715 13.434L36.8715 7.74L39.3155 9.404L34.7655 13.668L39.5235 19.284L36.5595 21.26ZM47.8804 7.87C49.0418 7.87 49.9864 8.37267 50.7144 9.378C51.4424 10.3833 51.8064 11.6747 51.8064 13.252C51.8064 15.5227 51.2084 17.386 50.0124 18.842C48.8338 20.2807 47.2998 21 45.4104 21C44.5438 21 43.0878 20.8613 41.0424 20.584L41.3024 14.682L40.9904 1.526L44.5524 0.875999L44.2144 7.584V10.392C44.4051 10.1147 44.6391 9.82 44.9164 9.508C45.1938 9.196 45.6271 8.84933 46.2164 8.468C46.8058 8.06933 47.3604 7.87 47.8804 7.87ZM46.8664 11.25C46.0691 11.25 45.1851 11.4927 44.2144 11.978V14.24L44.3704 18.062C45.0984 18.1487 45.7831 18.192 46.4244 18.192C48.0884 18.192 48.9204 17.0393 48.9204 14.734C48.9204 12.4113 48.2358 11.25 46.8664 11.25ZM53.185 15.566C53.185 13.3473 53.783 11.4667 54.979 9.924C56.175 8.38133 57.5704 7.61 59.165 7.61C60.777 7.61 62.025 8.13 62.909 9.17C63.8104 10.21 64.261 11.588 64.261 13.304C64.261 15.592 63.6804 17.4987 62.519 19.024C61.375 20.532 59.9277 21.286 58.177 21.286C56.7384 21.286 55.5424 20.7487 54.589 19.674C53.653 18.582 53.185 17.2127 53.185 15.566ZM61.349 14.656C61.349 12.1427 60.491 10.886 58.775 10.886C56.9897 10.886 56.097 12.0647 56.097 14.422C56.097 15.6527 56.3484 16.6147 56.851 17.308C57.3537 18.0013 58.0124 18.348 58.827 18.348C59.659 18.348 60.283 18.036 60.699 17.412C61.1324 16.7707 61.349 15.852 61.349 14.656ZM67.522 8.416V5.582L71.032 4.906L70.694 8.416H73.84L73.554 10.548H70.59L70.46 15.982C70.46 16.7967 70.538 17.3427 70.694 17.62C70.85 17.88 71.136 18.01 71.552 18.01C71.968 18.01 72.5227 17.9147 73.216 17.724L73.372 19.57C72.228 20.5233 71.2227 21 70.356 21C69.4893 21 68.7787 20.688 68.224 20.064C67.6693 19.4227 67.392 18.5907 67.392 17.568L67.548 14.656L67.522 10.548H65.728L66.014 8.416H67.522Z" fill="white"/>
</svg>
